<?xml version="1.0" encoding="utf-8"?>
<!-- Generator: Adobe Illustrator 26.2.1, SVG Export Plug-In . SVG Version: 6.00 Build 0)  -->
<svg version="1.1" id="Layer_1" xmlns="http://www.w3.org/2000/svg" xmlns:xlink="http://www.w3.org/1999/xlink" x="0px" y="0px"
	 viewBox="0 0 595.28 841.89" style="enable-background:new 0 0 595.28 841.89;" xml:space="preserve">
<style type="text/css">
	.st0{fill:#1E2B3C;}
</style>
<g>
	<path class="st0" d="M160.02,737.55c-24.01-0.82-47.91-3-71.81-5.27c0-208.23,0.01-416.45-0.07-624.68c0-2.91,0.4-3.72,3.56-3.71
		c104.08,0.11,208.15,0.09,312.23,0.09c0.67,19.04-0.68,37.93-4.11,56.68c-5.18,28.3-14.04,55.5-24.07,82.38
		c-10.35,27.76-22.24,54.94-31.33,83.16c-5.21,16.17-9.67,32.53-9.26,49.78c0.45,19.13,7.85,34.51,24.11,45.18
		c11.62,7.63,24.44,12.4,37.96,14.91c27.63,5.13,51.92,16.7,71.23,37.3c31.41,33.52,43.4,73.08,33.59,118.28
		c-7.36,33.92-27.27,60.04-53.92,81.27c-28.51,22.71-61.3,36.81-96.08,46.58c-35.76,10.05-72.33,15.09-109.34,17.46
		C237.84,737.28,160.62,737.57,160.02,737.55z"/>
</g>
</svg>
