<?xml version="1.0" encoding="utf-8"?>
<!-- Generator: Adobe Illustrator 27.2.0, SVG Export Plug-In . SVG Version: 6.00 Build 0)  -->
<svg version="1.1" id="Layer_1" xmlns="http://www.w3.org/2000/svg" xmlns:xlink="http://www.w3.org/1999/xlink" x="0px" y="0px"
	 viewBox="0 0 1080 1080" style="enable-background:new 0 0 1080 1080;" xml:space="preserve">
<style type="text/css">
	.st0{fill:#F7B032;}
</style>
<g>
	<g>
		<path class="st0" d="M502.89,627.63c-6.67-2.85-12.41-5.12-15.25-6.25c-8.77-3.52-17.11-7.9-24.94-13.15"/>
		<path class="st0" d="M577.1,627.63c6.72-2.89,12.53-5.15,15.39-6.31c6.01-2.41,11.79-5.23,17.39-8.45c2.51-1.46,5.01-3,7.45-4.64"
			/>
	</g>
	<g>
		<line class="st0" x1="462.74" y1="608.14" x2="462.7" y2="608.23"/>
		<line class="st0" x1="617.32" y1="608.23" x2="617.28" y2="608.14"/>
		<path class="st0" d="M596.88,745.08L596.88,745.08z"/>
	</g>
	<g>
		<path class="st0" d="M487.63,621.38c-8.77-3.52-17.1-7.89-24.94-13.14l0.04-0.1l77.25-133.81l77.29,133.81l0.04,0.1
			c-2.45,1.63-4.95,3.18-7.46,4.63c-5.59,3.22-11.37,6.04-17.38,8.45c-2.86,1.15-8.67,3.42-15.39,6.3
			c-15.93,6.8-37.07,16.92-37.07,23.48h-0.06c0-6.54-21.18-16.7-37.09-23.48C496.22,624.78,490.48,622.51,487.63,621.38z"/>
		<path class="st0" d="M760.83,856.84h-92.74c-22.49,0-43.21-11.99-54.45-31.44l-12.23-21.16c-9.92-17.2-25.25-28.14-42.08-32.81
			c-0.02,0-0.02,0-0.02,0c-10.5,5.35-19.29,11.06-19.29,15.27h-0.06c0-4.22-8.81-9.92-19.33-15.27
			c-16.8,4.69-32.11,15.63-42.04,32.81L466.4,825.4c-11.24,19.45-31.99,31.44-54.45,31.44h-92.78l120.52-208.75
			c10.2,6.84,21.08,12.57,32.49,17.14c12.51,5.01,67.79,26.49,67.79,38.5h0.06c0-12.07,55.38-33.51,67.93-38.56
			c7.77-3.12,15.27-6.78,22.49-10.96c3.34-1.93,6.64-3.96,9.86-6.12L760.83,856.84z"/>
		<path class="st0" d="M596.88,872.73L596.88,872.73z"/>
	</g>
</g>
</svg>
