<svg xmlns="http://www.w3.org/2000/svg" width="1715.719" height="645.815" viewBox="0 0 1715.719 645.815">
  <g id="Group_19" data-name="Group 19" transform="translate(-181.382 -77.162)">
    <circle id="Ellipse_2" data-name="Ellipse 2" cx="9.468" cy="9.468" r="9.468" transform="translate(900.945 219.283)" fill="#1e2b3c"/>
    <circle id="Ellipse_3" data-name="Ellipse 3" cx="3.787" cy="3.787" r="3.787" transform="translate(609.332 537.406)" fill="#1e2b3c"/>
    <circle id="Ellipse_4" data-name="Ellipse 4" cx="3.787" cy="3.787" r="3.787" transform="translate(1167.94 715.403)" fill="#1e2b3c"/>
    <circle id="Ellipse_5" data-name="Ellipse 5" cx="3.787" cy="3.787" r="3.787" transform="translate(181.382 668.063)" fill="#1e2b3c"/>
    <circle id="Ellipse_6" data-name="Ellipse 6" cx="3.787" cy="3.787" r="3.787" transform="translate(1658.379 533.619)" fill="#1e2b3c"/>
    <circle id="Ellipse_7" data-name="Ellipse 7" cx="3.787" cy="3.787" r="3.787" transform="translate(442.697 573.384)" fill="#1e2b3c"/>
    <circle id="Ellipse_8" data-name="Ellipse 8" cx="3.787" cy="3.787" r="3.787" transform="translate(1063.793 497.641)" fill="#1e2b3c"/>
    <circle id="Ellipse_9" data-name="Ellipse 9" cx="3.787" cy="3.787" r="3.787" transform="translate(1188.77 224.964)" fill="#1e2b3c"/>
    <rect id="Rectangle_19" data-name="Rectangle 19" width="3.787" height="1.894" transform="translate(401.038 675.638)" fill="#1e2b3c"/>
    <rect id="Rectangle_20" data-name="Rectangle 20" width="3.787" height="1.894" transform="translate(512.76 385.919)" fill="#1e2b3c"/>
    <rect id="Rectangle_21" data-name="Rectangle 21" width="3.787" height="1.894" transform="translate(785.436 601.788)" fill="#1e2b3c"/>
    <rect id="Rectangle_22" data-name="Rectangle 22" width="3.787" height="1.894" transform="translate(1508.786 685.106)" fill="#1e2b3c"/>
    <rect id="Rectangle_23" data-name="Rectangle 23" width="3.787" height="1.894" transform="translate(1283.449 395.387)" fill="#1e2b3c"/>
    <path id="Path_1" data-name="Path 1" d="M1694.926,271.449l23.615-27.646,23.615-27.646,13.331-15.607c.738-.863-.4-2.21-1.138-1.347l-23.615,27.646-23.616,27.646L1693.787,270.1c-.737.864.4,2.211,1.139,1.347Z" fill="#1e2b3c" opacity="0.8" style="isolation: isolate"/>
    <path id="Path_2" data-name="Path 2" d="M1692.777,149.687l23.615-27.646,23.615-27.647,13.331-15.606c.738-.864-.4-2.211-1.138-1.348l-23.615,27.647-23.615,27.646-13.331,15.607c-.738.863.4,2.21,1.138,1.347Z" fill="#1e2b3c" opacity="0.8" style="isolation: isolate"/>
    <circle id="Ellipse_15" data-name="Ellipse 15" cx="3.736" cy="3.736" r="3.736" transform="translate(1889.63 219.979)" fill="#1e2b3c"/>
    <circle id="Ellipse_16" data-name="Ellipse 16" cx="3.736" cy="3.736" r="3.736" transform="translate(1648.253 189.18)" fill="#1e2b3c"/>
    <path id="Path_3" data-name="Path 3" d="M1822.465,209.625l-1.864,1.852-1.852-1.865-1.243,1.235,1.851,1.864-1.864,1.852,1.234,1.243,1.865-1.852,1.852,1.864,1.243-1.235-1.852-1.864,1.864-1.852Z" fill="#1e2b3c"/>
    <path id="Path_4" data-name="Path 4" d="M1616.185,246.87l-1.864,1.852-1.852-1.865-1.243,1.235,1.851,1.864-1.864,1.852,1.234,1.243,1.865-1.852,1.851,1.864,1.243-1.235-1.852-1.864,1.864-1.852Z" fill="#1e2b3c"/>
    <path id="Path_5" data-name="Path 5" d="M1801.694,268.358l-1.864,1.852-1.852-1.865-1.243,1.235,1.851,1.864-1.864,1.852,1.234,1.243,1.865-1.852,1.851,1.864,1.243-1.235-1.852-1.864,1.864-1.852Z" fill="#1e2b3c"/>
    <path id="Path_6" data-name="Path 6" d="M1675.634,103.62l-1.864,1.852-1.852-1.865-1.243,1.235,1.851,1.864-1.864,1.852,1.234,1.243,1.865-1.852,1.852,1.864,1.243-1.235L1675,106.715l1.864-1.852Z" fill="#1e2b3c"/>
  </g>
</svg>
