<?xml version="1.0" encoding="UTF-8"?>
<svg id="Layer_1" xmlns="http://www.w3.org/2000/svg" version="1.1" viewBox="0 0 100 100">
  <!-- Generator: Adobe Illustrator 29.5.1, SVG Export Plug-In . SVG Version: 2.1.0 Build 141)  -->
  <defs>
    <style>
      .st0 {
        fill: #2196f3;
      }
    </style>
  </defs>
  <g>
    <path class="st0" d="M41.8,39.9c-1.5-.6-2.7-1.1-3.4-1.4-1.9-.8-3.8-1.7-5.5-2.9"/>
    <path class="st0" d="M58.2,39.9c1.5-.6,2.8-1.1,3.4-1.4,1.3-.5,2.6-1.2,3.8-1.9.6-.3,1.1-.7,1.6-1"/>
  </g>
  <g>
    <line class="st0" x1="32.9" y1="35.6" x2="32.9" y2="35.6"/>
    <line class="st0" x1="67.1" y1="35.6" x2="67.1" y2="35.6"/>
    <path class="st0" d="M62.6,65.8h0Z"/>
  </g>
  <g>
    <path class="st0" d="M38.4,38.5c-1.9-.8-3.8-1.7-5.5-2.9h0L50,6l17.1,29.5h0c-.5.4-1.1.7-1.6,1-1.2.7-2.5,1.3-3.8,1.9-.6.3-1.9.8-3.4,1.4-3.5,1.5-8.2,3.7-8.2,5.2h0c0-1.4-4.7-3.7-8.2-5.2-1.6-.6-2.8-1.1-3.5-1.3Z"/>
    <path class="st0" d="M98.7,90.5h-20.4c-5,0-9.5-2.6-12-6.9l-2.7-4.7c-2.2-3.8-5.6-6.2-9.3-7.2h0c-2.4,1.1-4.3,2.4-4.3,3.3h0c0-.9-1.9-2.2-4.3-3.4-3.7,1-7.1,3.4-9.3,7.2l-2.7,4.7c-2.5,4.3-7.1,6.9-12,6.9H1.3l26.6-46.1c2.3,1.5,4.7,2.8,7.2,3.8,2.8,1.1,15,5.8,15,8.5h0c0-2.7,12.2-7.4,15-8.5,1.7-.7,3.4-1.5,5-2.4.7-.4,1.5-.9,2.2-1.4l26.4,46.2Z"/>
    <path class="st0" d="M62.6,94h0Z"/>
  </g>
</svg>