<?xml version="1.0" encoding="utf-8"?>
<!-- Generator: Adobe Illustrator 27.2.0, SVG Export Plug-In . SVG Version: 6.00 Build 0)  -->
<svg version="1.1" id="Layer_1" xmlns="http://www.w3.org/2000/svg" xmlns:xlink="http://www.w3.org/1999/xlink" x="0px" y="0px"
	 viewBox="0 0 100 100" style="enable-background:new 0 0 100 100;" xml:space="preserve">
<style type="text/css">
	.st0{fill:#F7B032;}
</style>
<g>
	<g>
		<path class="st0" d="M41.8,39.9c-1.5-0.6-2.7-1.1-3.4-1.4c-1.9-0.8-3.8-1.7-5.5-2.9"/>
		<path class="st0" d="M58.2,39.9c1.5-0.6,2.8-1.1,3.4-1.4c1.3-0.5,2.6-1.2,3.8-1.9c0.6-0.3,1.1-0.7,1.6-1"/>
	</g>
	<g>
		<line class="st0" x1="32.9" y1="35.6" x2="32.9" y2="35.6"/>
		<line class="st0" x1="67.1" y1="35.6" x2="67.1" y2="35.6"/>
		<path class="st0" d="M62.6,65.8L62.6,65.8z"/>
	</g>
	<g>
		<path class="st0" d="M38.4,38.5c-1.9-0.8-3.8-1.7-5.5-2.9l0,0L50,6l17.1,29.5l0,0c-0.5,0.4-1.1,0.7-1.6,1
			c-1.2,0.7-2.5,1.3-3.8,1.9c-0.6,0.3-1.9,0.8-3.4,1.4c-3.5,1.5-8.2,3.7-8.2,5.2h0c0-1.4-4.7-3.7-8.2-5.2
			C40.3,39.2,39.1,38.7,38.4,38.5z"/>
		<path class="st0" d="M98.7,90.5H78.3c-5,0-9.5-2.6-12-6.9l-2.7-4.7c-2.2-3.8-5.6-6.2-9.3-7.2c0,0,0,0,0,0C51.9,72.8,50,74.1,50,75
			h0c0-0.9-1.9-2.2-4.3-3.4c-3.7,1-7.1,3.4-9.3,7.2l-2.7,4.7c-2.5,4.3-7.1,6.9-12,6.9H1.3l26.6-46.1c2.3,1.5,4.7,2.8,7.2,3.8
			c2.8,1.1,15,5.8,15,8.5h0c0-2.7,12.2-7.4,15-8.5c1.7-0.7,3.4-1.5,5-2.4c0.7-0.4,1.5-0.9,2.2-1.4L98.7,90.5z"/>
		<path class="st0" d="M62.6,94L62.6,94z"/>
	</g>
</g>
</svg>
