<?xml version="1.0" encoding="utf-8"?>
<!-- Generator: Adobe Illustrator 27.2.0, SVG Export Plug-In . SVG Version: 6.00 Build 0)  -->
<svg version="1.1" id="a" xmlns="http://www.w3.org/2000/svg" xmlns:xlink="http://www.w3.org/1999/xlink" x="0px" y="0px"
	 viewBox="0 0 185 75.2" style="enable-background:new 0 0 185 75.2;" xml:space="preserve">
<style type="text/css">
	.st0{fill:#F7B032;}
</style>
<g>
	<path class="st0" d="M105.2,31.7h-21v9.4c0,0.8-0.6,1.1-1.2,1.1s-1.2-0.3-1.2-1.1V26c0-7.9,4.2-14.2,13-14.2s13,6.3,13,14.2v15
		c0,0.8-0.6,1.1-1.2,1.1c-0.7,0-1.2-0.3-1.2-1.1L105.2,31.7L105.2,31.7z M84.2,29.4h21V26c0-6.9-3.6-12-10.5-12s-10.5,5.1-10.5,12
		V29.4z"/>
	<path class="st0" d="M146.7,22.9c0-7.4-3.5-8.8-6.8-8.8c-4,0-7.4,2.1-7.4,8.8V41c0,0.8-0.5,1.2-1.2,1.2c-0.7,0-1.2-0.4-1.2-1.2
		V22.9c0-6.7-3.5-8.8-7.4-8.8c-3.7,0-6.8,1.9-6.8,8.8V41c0,0.8-0.6,1.2-1.2,1.2c-0.8,0-1.3-0.4-1.3-1.2V22.9
		c0-8.8,4.3-11.1,9.4-11.1c4,0,7.1,1.7,8.6,6.4c1.6-5,4.8-6.4,8.8-6.4c4.8,0,9.2,1.9,9.2,11.1V41c0,0.8-0.6,1.2-1.3,1.2
		c-0.7,0-1.2-0.4-1.2-1.2L146.7,22.9L146.7,22.9z"/>
	<path class="st0" d="M155.5,13.5c0-0.7,0.4-0.9,1.3-1.1c1.9-0.4,6.6-0.6,9.2-0.6c6.5,0,12.3,2,12.3,8.8c0,5.3-3,7.9-7.2,8.9
		c5,3.1,4.4,10.1,8.2,10.3c0.5,0.1,1.1,0.3,1.1,1.2c0,0.8-0.5,1.2-1.3,1.2c-6.7,0-4.4-11.5-13.1-12h-1c-2.6,0-5.2-0.2-7-0.5v11.2
		c0,0.9-0.5,1.3-1.2,1.3s-1.2-0.4-1.2-1.3L155.5,13.5L155.5,13.5z M158,27.4c2.1,0.3,5.1,0.5,7.6,0.5c5.7,0,10.2-1.5,10.2-7.3
		c0-5.1-4.2-6.6-9.6-6.6c-2.8,0-5.9,0.2-8.3,0.5V27.4z"/>
</g>
<g>
	<path class="st0" d="M99.8,53.6c0-1.8-0.8-2.8-2.3-2.8s-2.3,1-2.3,2.8v9.1c0,1.2-0.8,2.1-2.2,2.1c-1.4,0-2.2-0.8-2.2-2.1v-9.1
		c0-1.8-0.8-2.8-2.3-2.8s-2.3,1-2.3,2.8v9.1c0,1.2-0.8,2.1-2.2,2.1s-2.2-0.8-2.2-2.1v-9.1c0-5.4,2.6-7,6.8-7c1.8,0,3.4,0.6,4.6,2.2
		c1.1-1.6,2.7-2.2,4.6-2.2c4.3,0,6.8,2.1,6.8,7v9.1c0,1.2-0.8,2.1-2.2,2.1s-2.2-0.8-2.2-2.1L99.8,53.6L99.8,53.6z"/>
	<path class="st0" d="M117.6,59.7h-7.3v3.1c0,1.5-1.1,2.1-2.2,2.1s-2.2-0.6-2.2-2.1v-7.4c0-5.6,2.9-8.6,8-8.6s8,3.1,8,8.7v7.4
		c0,1.5-1.1,2.1-2.2,2.1c-1.1,0-2.2-0.6-2.2-2.1L117.6,59.7L117.6,59.7z M110.3,55.9h7.3v-0.6c0-3.9-2-4.8-3.7-4.8s-3.7,0.8-3.7,4.8
		V55.9z"/>
	<path class="st0" d="M135.3,58.8c-1.5,0-2.1-0.8-2.1-2.1s0.7-2.1,2.1-2.1h4.7c1.1,0,2.2,0.5,2.2,2.7c0,3.5-2.9,7.8-8.9,7.8
		c-5.4,0-9.9-3.4-9.9-9.2s4.6-9.3,9.7-9.3c2.9,0,6.1,1.1,7.4,2.7c0.4,0.4,0.6,1,0.6,1.5c0,1-1,1.8-2.2,1.8c-1,0-1.6-0.8-2.4-1.2
		c-0.9-0.6-2-0.9-3.2-0.9c-2.9,0-5.1,1.8-5.1,5.4s2.2,5.4,5.2,5.4c1.6,0,3.2-0.6,4.1-2.4L135.3,58.8L135.3,58.8z"/>
	<path class="st0" d="M143.7,48.8c0-2,5.1-2.2,7.2-2.2c6.7,0,9.8,3,9.8,9.2c0,6.5-3.4,9.2-10,9.2c-2.1,0-7-0.3-7-2.2L143.7,48.8
		L143.7,48.8z M148.1,61c0.2,0.1,0.9,0.4,2.5,0.4c3.7,0,5.5-1.4,5.5-5.5c0-4.8-2.4-5.6-5.3-5.6c-1.4,0-2.1,0.2-2.7,0.4V61z"/>
	<path class="st0" d="M168.1,58.6c-3.9-0.8-6.1-3.7-6.1-8.4v-1.3c0-1.2,0.9-2.1,2.2-2.1s2.2,0.8,2.2,2.1v1.4c0,3.7,2,4.5,3.9,4.5
		s3.9-0.8,3.9-4.5v-1.4c0-1.2,0.9-2.1,2.2-2.1s2.2,0.8,2.2,2.1v1.3c0,4.8-2.1,7.7-6.1,8.4v4.1c0,1.2-1.1,2.1-2.2,2.1
		s-2.2-0.8-2.2-2.1C168.1,62.7,168.1,58.6,168.1,58.6z"/>
</g>
<g>
	<g>
		<path class="st0" d="M31.1,30.8c-1.1-0.5-2-0.8-2.5-1c-1.4-0.6-2.8-1.3-4.1-2.1"/>
		<path class="st0" d="M43.2,30.8c1.1-0.5,2-0.8,2.5-1c1-0.4,1.9-0.9,2.8-1.4c0.4-0.2,0.8-0.5,1.2-0.8"/>
	</g>
	<g>
		<line class="st0" x1="24.6" y1="27.6" x2="24.5" y2="27.6"/>
		<line class="st0" x1="49.7" y1="27.6" x2="49.7" y2="27.6"/>
		<path class="st0" d="M46.4,49.9L46.4,49.9z"/>
	</g>
	<g>
		<path class="st0" d="M28.6,29.8c-1.4-0.6-2.8-1.3-4.1-2.1l0,0L37.1,5.8l12.6,21.8l0,0c-0.4,0.3-0.8,0.5-1.2,0.8
			c-0.9,0.5-1.9,1-2.8,1.4c-0.5,0.2-1.4,0.6-2.5,1c-2.6,1.1-6,2.8-6,3.8h0c0-1.1-3.4-2.7-6-3.8C30,30.3,29.1,30,28.6,29.8z"/>
		<path class="st0" d="M73.1,68.1H58c-3.7,0-7-2-8.9-5.1l-2-3.4c-1.6-2.8-4.1-4.6-6.8-5.3c0,0,0,0,0,0c-1.7,0.9-3.1,1.8-3.1,2.5h0
			c0-0.7-1.4-1.6-3.1-2.5c-2.7,0.8-5.2,2.5-6.8,5.3l-2,3.4c-1.8,3.2-5.2,5.1-8.9,5.1H1.2l19.6-34c1.7,1.1,3.4,2,5.3,2.8
			c2,0.8,11,4.3,11,6.3h0c0-2,9-5.5,11.1-6.3c1.3-0.5,2.5-1.1,3.7-1.8c0.5-0.3,1.1-0.6,1.6-1L73.1,68.1z"/>
		<path class="st0" d="M46.4,70.7L46.4,70.7z"/>
	</g>
</g>
</svg>
