<?xml version="1.0" encoding="utf-8"?>
<!-- Generator: Adobe Illustrator 27.2.0, SVG Export Plug-In . SVG Version: 6.00 Build 0)  -->
<svg version="1.1" id="Layer_1" xmlns="http://www.w3.org/2000/svg" xmlns:xlink="http://www.w3.org/1999/xlink" x="0px" y="0px"
	 viewBox="0 0 595.28 841.89" style="enable-background:new 0 0 595.28 841.89;" xml:space="preserve">
<style type="text/css">
	.st0{fill:#F7B032;}
</style>
<g>
	<path class="st0" d="M63,446.48c0-3.25,0-6.49,0-9.74c2.97-8.76,8.99-15,17.05-18.98c8.24-4.08,16.61-8.36,25.41-10.76
		c24.17-6.59,48.55-12.46,72.95-18.22c28.43-6.7,56.79-13.55,83.92-24.65c14.98-6.13,29.33-13.48,41.7-23.98
		c22.81-19.36,38.37-43.72,46-72.51c5.35-20.2,8.71-40.93,13-61.41c3.16-15.07,7.2-29.87,15.52-43.03
		c15.47-24.49,38.37-37.84,66.35-43.27c5.93-1.15,11.91-2.04,17.86-3.04c9.75,0,19.5,0,29.25,0c0.42,0.21,0.83,0.54,1.27,0.6
		c12.82,1.57,25.65,3.1,38.48,4.65c0,198.01,0,396.01,0,594.02c-25.73,2.45-51.42,5.51-77.19,7.17
		c-26.82,1.73-53.69,0.77-80.49-1.77c-30.44-2.88-60.26-8.65-89.33-18.15c-57.3-18.72-105.21-51.15-143.13-98.07
		c-28.38-35.12-48.71-74.69-64.3-116.82C72.16,474.64,67.74,460.5,63,446.48z"/>
</g>
</svg>
