<?xml version="1.0" encoding="utf-8"?>
<!-- Generator: Adobe Illustrator 26.3.1, SVG Export Plug-In . SVG Version: 6.00 Build 0)  -->
<svg version="1.1" id="Layer_1" xmlns="http://www.w3.org/2000/svg" xmlns:xlink="http://www.w3.org/1999/xlink" x="0px" y="0px"
	 viewBox="0 0 100 100" style="enable-background:new 0 0 100 100;" xml:space="preserve">
<style type="text/css">
	.st0{fill:#EE2525;}
	.st1{fill:#5CBA47;}
</style>
<g>
	<path class="st0" d="M50,97.77C23.66,97.77,2.23,76.34,2.23,50C2.23,23.66,23.66,2.23,50,2.23c26.34,0,47.77,21.43,47.77,47.77
		C97.77,76.34,76.34,97.77,50,97.77z M50,11.16c-21.42,0-38.84,17.42-38.84,38.84c0,21.42,17.42,38.84,38.84,38.84
		c21.42,0,38.84-17.42,38.84-38.84C88.84,28.58,71.42,11.16,50,11.16z"/>
</g>
<g>
	<path class="st0" d="M70.75,54.47h-41.5c-2.47,0-4.47-2-4.47-4.47c0-2.47,2-4.47,4.47-4.47h41.5c2.47,0,4.47,2,4.47,4.47
		C75.22,52.47,73.22,54.47,70.75,54.47z"/>
</g>
</svg>
