<?xml version="1.0" encoding="utf-8"?>
<!-- Generator: Adobe Illustrator 26.3.1, SVG Export Plug-In . SVG Version: 6.00 Build 0)  -->
<svg version="1.1" id="Layer_1" xmlns="http://www.w3.org/2000/svg" xmlns:xlink="http://www.w3.org/1999/xlink" x="0px" y="0px"
	 viewBox="0 0 100 89.74" style="enable-background:new 0 0 100 89.74;" xml:space="preserve">
<style type="text/css">
	.st0{fill:#EE2525;}
	.st1{fill:#5CBA47;}
</style>
<g>
	<g>
		<path class="st1" d="M44.27,85.83c-22.59,0-40.96-18.38-40.96-40.96c0-22.59,18.38-40.96,40.96-40.96
			c8.51,0,16.67,2.58,23.59,7.47c1.73,1.22,2.14,3.61,0.92,5.34c-1.22,1.73-3.61,2.14-5.34,0.92c-5.63-3.97-12.26-6.07-19.17-6.07
			c-18.36,0-33.29,14.94-33.29,33.3s14.94,33.29,33.29,33.29c7.9,0,15.56-2.81,21.56-7.93c1.61-1.37,4.03-1.18,5.41,0.43
			c1.37,1.61,1.18,4.03-0.43,5.41C63.41,82.37,53.99,85.83,44.27,85.83z"/>
	</g>
	<g>
		<path class="st1" d="M77.15,65.96c-0.6,0-1.21-0.14-1.78-0.44c-1.87-0.99-2.6-3.3-1.61-5.18c2.49-4.73,3.8-10.08,3.8-15.47
			c0-2.28-0.23-4.55-0.68-6.75c-0.43-2.07,0.91-4.1,2.98-4.53c2.08-0.43,4.1,0.91,4.53,2.98c0.56,2.71,0.84,5.51,0.84,8.3
			c0,6.63-1.62,13.21-4.68,19.04C79.87,65.21,78.53,65.96,77.15,65.96z"/>
	</g>
	<g>
		<path class="st1" d="M44.86,58.96c-0.08,0-0.16,0-0.25-0.01c-1.09-0.07-2.1-0.6-2.77-1.46L28.29,40.18
			c-1.31-1.67-1.01-4.08,0.66-5.38c1.67-1.31,4.08-1.01,5.38,0.66l10.9,13.92L90.17,5.01c1.51-1.49,3.94-1.47,5.42,0.04
			c1.49,1.51,1.47,3.94-0.04,5.42l-48,47.38C46.83,58.56,45.86,58.96,44.86,58.96z"/>
	</g>
</g>
</svg>
